<svg xmlns="http://www.w3.org/2000/svg" viewBox="0 0 48 48"><defs><linearGradient id="a" x1="24" y1="24.18" x2="25.58" y2="24.18" gradientUnits="userSpaceOnUse"><stop offset="0" stop-color="#df221b"/><stop offset=".52" stop-color="#dd211b"/><stop offset=".7" stop-color="#d61e1a"/><stop offset=".84" stop-color="#cb1919"/><stop offset=".94" stop-color="#ba1117"/><stop offset="1" stop-color="#ad0b16"/></linearGradient><clipPath id="b"><path fill="none" d="M5.83 43.15V14.7l15.01-6.32v36.35L5.83 43.15z"/></clipPath><linearGradient id="c" x1="-21.97" y1="7.2" x2="-6.81" y2="-14.66" gradientTransform="matrix(1.2 .41 -.46 1.07 38.15 35.87)" gradientUnits="userSpaceOnUse"><stop offset="0" stop-color="#ad0b16" stop-opacity="0"/><stop offset=".1" stop-color="#ba1c18" stop-opacity=".21"/><stop offset=".25" stop-color="#ca321b" stop-opacity=".49"/><stop offset=".38" stop-color="#d8441d" stop-opacity=".71"/><stop offset=".49" stop-color="#e1501f" stop-opacity=".87"/><stop offset=".58" stop-color="#e75820" stop-opacity=".96"/><stop offset=".64" stop-color="#e95b20"/></linearGradient><clipPath id="d"><path fill="none" d="M33.78 16.07l10.81-1.66-19.71-9.86-21.23 9.86 21.23 3.03 8.9-1.37"/></clipPath><clipPath id="e"><path fill="none" d="M28.74 44.73V9.17l14.22 5.53v28.45l-14.22 1.58z"/></clipPath><linearGradient id="f" x1="-34.83" y1="-474.3" x2="-19.67" y2="-496.16" gradientTransform="matrix(-1.34 -.35 .52 -.9 238 -424.35)" gradientUnits="userSpaceOnUse"><stop offset=".43" stop-color="#e95b20"/><stop offset=".48" stop-color="#e65820" stop-opacity=".97"/><stop offset=".55" stop-color="#e04f1e" stop-opacity=".88"/><stop offset=".63" stop-color="#d4401d" stop-opacity=".73"/><stop offset=".73" stop-color="#c52b1a" stop-opacity=".52"/><stop offset=".84" stop-color="#b11117" stop-opacity=".26"/><stop offset=".86" stop-color="#ad0b16" stop-opacity=".2"/></linearGradient></defs><g data-name="Layer 1"><path d="M27.16 45.61a41.47 41.47 0 0 1-4.73 0l-19-1.27a2.55 2.55 0 0 1-2.35-2.52V14.17a3.76 3.76 0 0 1 2.19-3.25L22.59 3.2a6.58 6.58 0 0 1 4.38 0l17.76 7.61a3.89 3.89 0 0 1 2.18 3.31v27.71a2.58 2.58 0 0 1-2.36 2.54z" fill="#fff"/><path fill="url(#a)" d="M24 2.85h1.58v42.67H24z"/><path style="mix-blend-mode:multiply" fill="#d2312d" d="M5.83 43.15V14.7l15.01-6.32v36.35L5.83 43.15z"/><g clip-path="url(#b)"><ellipse cx="16.54" cy="29.57" rx="16.59" ry="13.5" transform="rotate(-21.11 16.536 29.57)" fill="url(#c)"/></g><g clip-path="url(#b)"><path fill="#ad0b16" d="M1.76 42.84l21.6-1.14 21.23 1.14-20.47 3.41-22.36-3.41z"/><g clip-path="url(#d)"><path style="mix-blend-mode:multiply" fill="#d2312d" d="M28.74 44.73V9.17l14.22 5.53v28.45l-14.22 1.58z"/></g><path style="mix-blend-mode:multiply" fill="#d2312d" d="M33.78 16.07l10.81-1.66-19.71-9.86-21.23 9.86 21.23 3.03 8.9-1.37"/></g><path fill="#d2312d" d="M28.74 44.73V9.17l14.22 5.53v28.45l-14.22 1.58z"/><g clip-path="url(#e)"><ellipse cx="30.92" cy="18.74" rx="18.45" ry="11.34" transform="rotate(-82.86 30.918 18.74)" fill="url(#f)"/></g><g clip-path="url(#e)"><path fill="#ad0b16" d="M1.76 42.84l21.6-1.14 21.23 1.14-20.47 3.41-22.36-3.41z"/><g clip-path="url(#d)"><path style="mix-blend-mode:multiply" fill="#d2312d" d="M28.74 44.73V9.17l14.22 5.53v28.45l-14.22 1.58z"/></g></g><path d="M24.63 46.63c-.81 0-1.6 0-2.23-.06L4.22 45.4A4.53 4.53 0 0 1 0 40.89V14a5.64 5.64 0 0 1 3.43-5L21.9 1.83a8.4 8.4 0 0 1 5.68.07L44.63 9A5.74 5.74 0 0 1 48 14v26.9a4.55 4.55 0 0 1-4.21 4.52l-16.74 1.14c-.67.05-1.55.07-2.42.07zm2.53-.48zm-2.47-42a3.78 3.78 0 0 0-1.26.18L3.37 12.1a1.42 1.42 0 0 0-.7 1v29.25a.2.2 0 0 0 .15.17l19.75 1.27a40.73 40.73 0 0 0 4.42 0l18.19-1.25a.23.23 0 0 0 .15-.18V13.13A1.54 1.54 0 0 0 44.6 12L26.08 4.37a4 4 0 0 0-1.39-.21z"/></g></svg>