<svg xmlns="http://www.w3.org/2000/svg" xmlns:xlink="http://www.w3.org/1999/xlink" viewBox="0 0 48 48"><defs><style>.cls-1{fill:none;}.cls-2{isolation:isolate;}.cls-3{fill:#fff;}.cls-4{fill:url(#linear-gradient);}.cls-12,.cls-5{fill:#d2312d;}.cls-10,.cls-5{mix-blend-mode:multiply;}.cls-6{mix-blend-mode:screen;}.cls-7{clip-path:url(#clip-path);}.cls-8{fill:url(#linear-gradient-2);}.cls-9{fill:#ad0b16;}.cls-11{clip-path:url(#clip-path-3);}.cls-13{clip-path:url(#clip-path-4);}.cls-14{fill:url(#linear-gradient-3);}</style><linearGradient id="linear-gradient" x1="24" y1="24.18" x2="25.58" y2="24.18" gradientUnits="userSpaceOnUse"><stop offset="0" stop-color="#df221b"/><stop offset="0.52" stop-color="#dd211b"/><stop offset="0.7" stop-color="#d61e1a"/><stop offset="0.84" stop-color="#cb1919"/><stop offset="0.94" stop-color="#ba1117"/><stop offset="1" stop-color="#ad0b16"/></linearGradient><clipPath id="clip-path"><polygon class="cls-1" points="5.83 43.15 5.83 14.7 20.84 8.38 20.84 44.73 5.83 43.15"/></clipPath><linearGradient id="linear-gradient-2" x1="-21.97" y1="7.2" x2="-6.81" y2="-14.66" gradientTransform="matrix(1.2, 0.41, -0.46, 1.07, 38.15, 35.87)" gradientUnits="userSpaceOnUse"><stop offset="0" stop-color="#ad0b16" stop-opacity="0"/><stop offset="0.1" stop-color="#ba1c18" stop-opacity="0.21"/><stop offset="0.25" stop-color="#ca321b" stop-opacity="0.49"/><stop offset="0.38" stop-color="#d8441d" stop-opacity="0.71"/><stop offset="0.49" stop-color="#e1501f" stop-opacity="0.87"/><stop offset="0.58" stop-color="#e75820" stop-opacity="0.96"/><stop offset="0.64" stop-color="#e95b20"/></linearGradient><clipPath id="clip-path-3"><polyline class="cls-1" points="33.78 16.07 44.59 14.41 24.88 4.55 3.65 14.41 24.88 17.44 33.78 16.07"/></clipPath><clipPath id="clip-path-4"><polygon class="cls-1" points="28.74 44.73 28.74 9.17 42.96 14.7 42.96 43.15 28.74 44.73"/></clipPath><linearGradient id="linear-gradient-3" x1="-34.83" y1="-474.3" x2="-19.67" y2="-496.16" gradientTransform="matrix(-1.34, -0.35, 0.52, -0.9, 238, -424.35)" gradientUnits="userSpaceOnUse"><stop offset="0.43" stop-color="#e95b20"/><stop offset="0.48" stop-color="#e65820" stop-opacity="0.97"/><stop offset="0.55" stop-color="#e04f1e" stop-opacity="0.88"/><stop offset="0.63" stop-color="#d4401d" stop-opacity="0.73"/><stop offset="0.73" stop-color="#c52b1a" stop-opacity="0.52"/><stop offset="0.84" stop-color="#b11117" stop-opacity="0.26"/><stop offset="0.86" stop-color="#ad0b16" stop-opacity="0.2"/></linearGradient></defs><title>materielnet</title><g class="cls-2"><g id="Layer_1" data-name="Layer 1"><path class="cls-3" d="M27.16,45.61a41.47,41.47,0,0,1-4.73,0l-19-1.27a2.55,2.55,0,0,1-2.35-2.52V14.17a3.76,3.76,0,0,1,2.19-3.25L22.59,3.2a6.58,6.58,0,0,1,4.38,0l17.76,7.61a3.89,3.89,0,0,1,2.18,3.31V41.83a2.58,2.58,0,0,1-2.36,2.54Z"/><rect class="cls-4" x="24" y="2.85" width="1.58" height="42.67"/><polygon class="cls-5" points="5.83 43.15 5.83 14.7 20.84 8.38 20.84 44.73 5.83 43.15"/><g class="cls-6"><g class="cls-7"><ellipse class="cls-8" cx="16.54" cy="29.57" rx="16.59" ry="13.5" transform="translate(-9.54 7.94) rotate(-21.11)"/></g></g><g class="cls-7"><polygon class="cls-9" points="1.76 42.84 23.36 41.7 44.59 42.84 24.12 46.25 1.76 42.84"/><g class="cls-10"><g class="cls-11"><polygon class="cls-5" points="28.74 44.73 28.74 9.17 42.96 14.7 42.96 43.15 28.74 44.73"/></g></g><polyline class="cls-5" points="33.78 16.07 44.59 14.41 24.88 4.55 3.65 14.41 24.88 17.44 33.78 16.07"/></g><polygon class="cls-12" points="28.74 44.73 28.74 9.17 42.96 14.7 42.96 43.15 28.74 44.73"/><g class="cls-13"><ellipse class="cls-14" cx="30.92" cy="18.74" rx="18.45" ry="11.34" transform="translate(8.48 47.09) rotate(-82.86)"/></g><g class="cls-13"><polygon class="cls-9" points="1.76 42.84 23.36 41.7 44.59 42.84 24.12 46.25 1.76 42.84"/><g class="cls-10"><g class="cls-11"><polygon class="cls-5" points="28.74 44.73 28.74 9.17 42.96 14.7 42.96 43.15 28.74 44.73"/></g></g></g><path d="M24.63,46.63c-.81,0-1.6,0-2.23-.06L4.22,45.4A4.53,4.53,0,0,1,0,40.89V14A5.64,5.64,0,0,1,3.43,9L21.9,1.83a8.4,8.4,0,0,1,5.68.07L44.63,9A5.74,5.74,0,0,1,48,14v26.9a4.55,4.55,0,0,1-4.21,4.52L27.05,46.56h0C26.38,46.61,25.5,46.63,24.63,46.63Zm2.53-.48Zm-2.47-42a3.78,3.78,0,0,0-1.26.18L3.37,12.1a1.42,1.42,0,0,0-.7,1V42.35a.2.2,0,0,0,.15.17l19.75,1.27a40.73,40.73,0,0,0,4.42,0l18.19-1.25a.23.23,0,0,0,.15-.18V13.13A1.54,1.54,0,0,0,44.6,12L26.08,4.37A4,4,0,0,0,24.69,4.16Z"/></g></g></svg>